<mxfile host="app.diagrams.net" modified="2021-05-06T07:47:36.069Z" agent="5.0 (Windows NT 10.0; Win64; x64) AppleWebKit/537.36 (KHTML, like Gecko) Chrome/90.0.4430.93 Safari/537.36 Edg/90.0.818.51" etag="sqMcx3ln5RExEWJecpXq" version="14.6.9" type="github">
  <diagram id="JSLYW5las_3jaCacX6Xa" name="Page-1">
    <mxGraphModel dx="3916" dy="2000" grid="1" gridSize="10" guides="1" tooltips="1" connect="1" arrows="1" fold="1" page="1" pageScale="1" pageWidth="850" pageHeight="1100" math="0" shadow="0">
      <root>
        <mxCell id="0" />
        <mxCell id="1" parent="0" />
        <mxCell id="ujUrHDo3ct17JqZA6DmU-1" value="Quản lý dịch vụ" style="strokeWidth=1;shadow=0;dashed=0;align=center;html=1;shape=mxgraph.mockup.containers.window;align=left;verticalAlign=top;spacingLeft=8;strokeColor2=#008cff;strokeColor3=#c4c4c4;fontColor=#666666;mainText=;fontSize=17;labelBackgroundColor=none;" parent="1" vertex="1">
          <mxGeometry x="60" y="30" width="750" height="440" as="geometry" />
        </mxCell>
        <mxCell id="ujUrHDo3ct17JqZA6DmU-8" value="Booking" style="strokeWidth=1;shadow=0;dashed=0;align=center;html=1;shape=mxgraph.mockup.buttons.button;strokeColor=#666666;fontColor=#ffffff;mainText=;buttonStyle=round;fontSize=17;fontStyle=1;fillColor=#008cff;whiteSpace=wrap;" parent="1" vertex="1">
          <mxGeometry x="240" y="180" width="150" height="90" as="geometry" />
        </mxCell>
        <mxCell id="ujUrHDo3ct17JqZA6DmU-9" value="Order room service" style="strokeWidth=1;shadow=0;dashed=0;align=center;html=1;shape=mxgraph.mockup.buttons.button;strokeColor=#666666;fontColor=#ffffff;mainText=;buttonStyle=round;fontSize=17;fontStyle=1;fillColor=#008cff;whiteSpace=wrap;" parent="1" vertex="1">
          <mxGeometry x="420" y="180" width="150" height="90" as="geometry" />
        </mxCell>
        <mxCell id="ujUrHDo3ct17JqZA6DmU-10" value="Checkout" style="strokeWidth=1;shadow=0;dashed=0;align=center;html=1;shape=mxgraph.mockup.buttons.button;strokeColor=#666666;fontColor=#ffffff;mainText=;buttonStyle=round;fontSize=17;fontStyle=1;fillColor=#008cff;whiteSpace=wrap;" parent="1" vertex="1">
          <mxGeometry x="600" y="180" width="150" height="90" as="geometry" />
        </mxCell>
        <mxCell id="ujUrHDo3ct17JqZA6DmU-11" value="Quản lý dịch vụ" style="strokeWidth=1;shadow=0;dashed=0;align=center;html=1;shape=mxgraph.mockup.containers.window;align=left;verticalAlign=top;spacingLeft=8;strokeColor2=#008cff;strokeColor3=#c4c4c4;fontColor=#666666;mainText=;fontSize=17;labelBackgroundColor=none;" parent="1" vertex="1">
          <mxGeometry x="-800" y="30" width="750" height="440" as="geometry" />
        </mxCell>
        <mxCell id="ujUrHDo3ct17JqZA6DmU-30" value="Dạng thuê" style="text;html=1;strokeColor=none;fillColor=none;align=center;verticalAlign=middle;whiteSpace=wrap;rounded=0;fontStyle=1" parent="1" vertex="1">
          <mxGeometry x="-770" y="160" width="120" height="30" as="geometry" />
        </mxCell>
        <mxCell id="ujUrHDo3ct17JqZA6DmU-60" style="edgeStyle=orthogonalEdgeStyle;rounded=0;orthogonalLoop=1;jettySize=auto;html=1;fontSize=29;" parent="1" source="ujUrHDo3ct17JqZA6DmU-31" target="ujUrHDo3ct17JqZA6DmU-51" edge="1">
          <mxGeometry relative="1" as="geometry">
            <mxPoint x="-970" y="190" as="targetPoint" />
            <Array as="points">
              <mxPoint x="-760" y="175" />
              <mxPoint x="-760" y="161" />
            </Array>
          </mxGeometry>
        </mxCell>
        <mxCell id="ujUrHDo3ct17JqZA6DmU-31" value="Ở ghép" style="strokeWidth=1;shadow=0;dashed=0;align=center;html=1;shape=mxgraph.mockup.forms.comboBox;strokeColor=#999999;fillColor=#ddeeff;align=left;fillColor2=#aaddff;mainText=;fontColor=#666666;fontSize=17;spacingLeft=3;" parent="1" vertex="1">
          <mxGeometry x="-640" y="160" width="150" height="30" as="geometry" />
        </mxCell>
        <mxCell id="ujUrHDo3ct17JqZA6DmU-32" value="Loại phòng" style="text;html=1;strokeColor=none;fillColor=none;align=center;verticalAlign=middle;whiteSpace=wrap;rounded=0;fontStyle=1" parent="1" vertex="1">
          <mxGeometry x="-770" y="220" width="120" height="30" as="geometry" />
        </mxCell>
        <mxCell id="ujUrHDo3ct17JqZA6DmU-124" style="edgeStyle=orthogonalEdgeStyle;rounded=0;orthogonalLoop=1;jettySize=auto;html=1;entryX=1;entryY=0.414;entryDx=0;entryDy=0;entryPerimeter=0;fontSize=29;" parent="1" source="ujUrHDo3ct17JqZA6DmU-33" target="ujUrHDo3ct17JqZA6DmU-118" edge="1">
          <mxGeometry relative="1" as="geometry">
            <Array as="points">
              <mxPoint x="-860" y="235" />
              <mxPoint x="-860" y="453" />
            </Array>
          </mxGeometry>
        </mxCell>
        <mxCell id="ujUrHDo3ct17JqZA6DmU-33" value="Phòng thườn" style="strokeWidth=1;shadow=0;dashed=0;align=center;html=1;shape=mxgraph.mockup.forms.comboBox;strokeColor=#999999;fillColor=#ddeeff;align=left;fillColor2=#aaddff;mainText=;fontColor=#666666;fontSize=17;spacingLeft=3;" parent="1" vertex="1">
          <mxGeometry x="-640" y="220" width="150" height="30" as="geometry" />
        </mxCell>
        <mxCell id="ujUrHDo3ct17JqZA6DmU-34" value="Yêu cầu đặc biệt" style="text;html=1;strokeColor=none;fillColor=none;align=center;verticalAlign=middle;whiteSpace=wrap;rounded=0;fontStyle=1" parent="1" vertex="1">
          <mxGeometry x="-770" y="280" width="120" height="30" as="geometry" />
        </mxCell>
        <mxCell id="iy7l8Z3j97CfQDaK9TCk-4" style="edgeStyle=orthogonalEdgeStyle;rounded=0;orthogonalLoop=1;jettySize=auto;html=1;entryX=0.5;entryY=0;entryDx=0;entryDy=0;fontSize=18;exitX=1;exitY=0.5;exitDx=0;exitDy=0;" parent="1" source="iy7l8Z3j97CfQDaK9TCk-6" target="iy7l8Z3j97CfQDaK9TCk-8" edge="1">
          <mxGeometry relative="1" as="geometry">
            <mxPoint x="-490" y="300.0099999999999" as="sourcePoint" />
            <mxPoint x="-562.5" y="560" as="targetPoint" />
          </mxGeometry>
        </mxCell>
        <mxCell id="ujUrHDo3ct17JqZA6DmU-37" value="Số phòng phù hợp" style="text;html=1;strokeColor=none;fillColor=none;align=center;verticalAlign=middle;whiteSpace=wrap;rounded=0;fontStyle=1" parent="1" vertex="1">
          <mxGeometry x="-770" y="400" width="120" height="30" as="geometry" />
        </mxCell>
        <mxCell id="ujUrHDo3ct17JqZA6DmU-39" value="&lt;span style=&quot;font-weight: 400&quot;&gt;&amp;lt;Số phòng phù hợp&amp;gt;&lt;/span&gt;" style="text;html=1;strokeColor=none;fillColor=none;align=center;verticalAlign=middle;whiteSpace=wrap;rounded=0;fontStyle=1" parent="1" vertex="1">
          <mxGeometry x="-640" y="400" width="120" height="30" as="geometry" />
        </mxCell>
        <mxCell id="ujUrHDo3ct17JqZA6DmU-40" value="Thông tin phòng" style="text;html=1;strokeColor=none;fillColor=none;align=center;verticalAlign=middle;whiteSpace=wrap;rounded=0;fontSize=29;fontStyle=1" parent="1" vertex="1">
          <mxGeometry x="-760" y="70" width="310" height="70" as="geometry" />
        </mxCell>
        <mxCell id="ujUrHDo3ct17JqZA6DmU-41" value="Thông tin khách hàng" style="text;html=1;strokeColor=none;fillColor=none;align=center;verticalAlign=middle;whiteSpace=wrap;rounded=0;fontSize=29;fontStyle=1" parent="1" vertex="1">
          <mxGeometry x="-400" y="70" width="310" height="70" as="geometry" />
        </mxCell>
        <mxCell id="ujUrHDo3ct17JqZA6DmU-43" value="CMND" style="text;html=1;strokeColor=none;fillColor=none;align=center;verticalAlign=middle;whiteSpace=wrap;rounded=0;fontStyle=1" parent="1" vertex="1">
          <mxGeometry x="-400" y="160" width="120" height="30" as="geometry" />
        </mxCell>
        <mxCell id="ujUrHDo3ct17JqZA6DmU-44" value="" style="strokeWidth=1;shadow=0;dashed=0;align=center;html=1;shape=mxgraph.mockup.text.textBox;fontColor=#666666;align=left;fontSize=17;spacingLeft=4;spacingTop=-3;strokeColor=#666666;mainText=;fillColor=#FFFFFF;" parent="1" vertex="1">
          <mxGeometry x="-241" y="159" width="150" height="30" as="geometry" />
        </mxCell>
        <mxCell id="ujUrHDo3ct17JqZA6DmU-45" value="Họ tên" style="text;html=1;strokeColor=none;fillColor=none;align=center;verticalAlign=middle;whiteSpace=wrap;rounded=0;fontStyle=1" parent="1" vertex="1">
          <mxGeometry x="-399" y="211" width="120" height="30" as="geometry" />
        </mxCell>
        <mxCell id="ujUrHDo3ct17JqZA6DmU-46" value="" style="strokeWidth=1;shadow=0;dashed=0;align=center;html=1;shape=mxgraph.mockup.text.textBox;fontColor=#666666;align=left;fontSize=17;spacingLeft=4;spacingTop=-3;strokeColor=#666666;mainText=;fillColor=#FFFFFF;" parent="1" vertex="1">
          <mxGeometry x="-240" y="210" width="150" height="30" as="geometry" />
        </mxCell>
        <mxCell id="ujUrHDo3ct17JqZA6DmU-47" value="Ngày rời đi" style="text;html=1;strokeColor=none;fillColor=none;align=center;verticalAlign=middle;whiteSpace=wrap;rounded=0;fontStyle=1" parent="1" vertex="1">
          <mxGeometry x="-399" y="261" width="120" height="30" as="geometry" />
        </mxCell>
        <mxCell id="ujUrHDo3ct17JqZA6DmU-117" style="edgeStyle=orthogonalEdgeStyle;rounded=0;orthogonalLoop=1;jettySize=auto;html=1;fontSize=29;exitX=0.007;exitY=0.6;exitDx=0;exitDy=0;exitPerimeter=0;" parent="1" source="ujUrHDo3ct17JqZA6DmU-48" target="ujUrHDo3ct17JqZA6DmU-63" edge="1">
          <mxGeometry relative="1" as="geometry">
            <Array as="points">
              <mxPoint x="-240" y="440" />
              <mxPoint x="-163" y="440" />
            </Array>
          </mxGeometry>
        </mxCell>
        <mxCell id="ujUrHDo3ct17JqZA6DmU-48" value="" style="strokeWidth=1;shadow=0;dashed=0;align=center;html=1;shape=mxgraph.mockup.text.textBox;fontColor=#666666;align=left;fontSize=17;spacingLeft=4;spacingTop=-3;strokeColor=#666666;mainText=;fillColor=#FFFFFF;" parent="1" vertex="1">
          <mxGeometry x="-240" y="261" width="150" height="30" as="geometry" />
        </mxCell>
        <mxCell id="ujUrHDo3ct17JqZA6DmU-51" value="" style="strokeWidth=1;shadow=0;dashed=0;align=center;html=1;shape=mxgraph.mockup.forms.rrect;rSize=0;strokeColor=#999999;fillColor=#ffffff;fontSize=29;" parent="1" vertex="1">
          <mxGeometry x="-1160" y="126" width="150" height="200" as="geometry" />
        </mxCell>
        <mxCell id="ujUrHDo3ct17JqZA6DmU-52" value="Dạng thuê" style="strokeWidth=1;shadow=0;dashed=0;align=center;html=1;shape=mxgraph.mockup.forms.rrect;rSize=0;strokeColor=#999999;fontColor=#008cff;fontSize=17;fillColor=#ffffff;resizeWidth=1;" parent="ujUrHDo3ct17JqZA6DmU-51" vertex="1">
          <mxGeometry width="150" height="30" relative="1" as="geometry" />
        </mxCell>
        <mxCell id="ujUrHDo3ct17JqZA6DmU-53" value="Ở ghép" style="strokeWidth=1;shadow=0;dashed=0;align=center;html=1;shape=mxgraph.mockup.forms.anchor;fontSize=17;fontColor=#666666;align=left;spacingLeft=5;resizeWidth=1;" parent="ujUrHDo3ct17JqZA6DmU-51" vertex="1">
          <mxGeometry width="150" height="20" relative="1" as="geometry">
            <mxPoint y="30" as="offset" />
          </mxGeometry>
        </mxCell>
        <mxCell id="ujUrHDo3ct17JqZA6DmU-54" value="Trọn phòng" style="strokeWidth=1;shadow=0;dashed=0;align=center;html=1;shape=mxgraph.mockup.forms.anchor;fontSize=17;fontColor=#666666;align=left;spacingLeft=5;resizeWidth=1;" parent="ujUrHDo3ct17JqZA6DmU-51" vertex="1">
          <mxGeometry width="150" height="20" relative="1" as="geometry">
            <mxPoint y="50" as="offset" />
          </mxGeometry>
        </mxCell>
        <mxCell id="ujUrHDo3ct17JqZA6DmU-61" value="Kích thước phòng" style="text;html=1;strokeColor=none;fillColor=none;align=center;verticalAlign=middle;whiteSpace=wrap;rounded=0;fontStyle=1" parent="1" vertex="1">
          <mxGeometry x="-770" y="340" width="120" height="30" as="geometry" />
        </mxCell>
        <mxCell id="ujUrHDo3ct17JqZA6DmU-63" value="" style="strokeWidth=1;shadow=0;dashed=0;align=center;html=1;shape=mxgraph.mockup.forms.rrect;rSize=5;strokeColor=#999999;fillColor=#ffffff;fontSize=29;" parent="1" vertex="1">
          <mxGeometry x="-340" y="560" width="330" height="360.94" as="geometry" />
        </mxCell>
        <mxCell id="ujUrHDo3ct17JqZA6DmU-64" value="October 2014" style="strokeWidth=1;shadow=0;dashed=0;align=center;html=1;shape=mxgraph.mockup.forms.anchor;fontColor=#999999;" parent="ujUrHDo3ct17JqZA6DmU-63" vertex="1">
          <mxGeometry x="61.875" y="16.500114285714286" width="206.25" height="41.25028571428572" as="geometry" />
        </mxCell>
        <mxCell id="ujUrHDo3ct17JqZA6DmU-65" value="&lt;" style="strokeWidth=1;shadow=0;dashed=0;align=center;html=1;shape=mxgraph.mockup.forms.rrect;rSize=4;strokeColor=#999999;fontColor=#008cff;fontSize=19;fontStyle=1;" parent="ujUrHDo3ct17JqZA6DmU-63" vertex="1">
          <mxGeometry x="16.5" y="16.500114285714286" width="51.5625" height="41.25028571428572" as="geometry" />
        </mxCell>
        <mxCell id="ujUrHDo3ct17JqZA6DmU-66" value="&gt;" style="strokeWidth=1;shadow=0;dashed=0;align=center;html=1;shape=mxgraph.mockup.forms.rrect;rSize=4;strokeColor=#999999;fontColor=#008cff;fontSize=19;fontStyle=1;" parent="ujUrHDo3ct17JqZA6DmU-63" vertex="1">
          <mxGeometry x="261.9375" y="16.500114285714286" width="51.5625" height="41.25028571428572" as="geometry" />
        </mxCell>
        <mxCell id="ujUrHDo3ct17JqZA6DmU-67" value="Mo" style="strokeWidth=1;shadow=0;dashed=0;align=center;html=1;shape=mxgraph.mockup.forms.anchor;fontColor=#999999;" parent="ujUrHDo3ct17JqZA6DmU-63" vertex="1">
          <mxGeometry x="20.625" y="57.7504" width="41.25" height="41.25028571428572" as="geometry" />
        </mxCell>
        <mxCell id="ujUrHDo3ct17JqZA6DmU-68" value="Tu" style="strokeWidth=1;shadow=0;dashed=0;align=center;html=1;shape=mxgraph.mockup.forms.anchor;fontColor=#999999;" parent="ujUrHDo3ct17JqZA6DmU-63" vertex="1">
          <mxGeometry x="61.875" y="57.7504" width="41.25" height="41.25028571428572" as="geometry" />
        </mxCell>
        <mxCell id="ujUrHDo3ct17JqZA6DmU-69" value="We" style="strokeWidth=1;shadow=0;dashed=0;align=center;html=1;shape=mxgraph.mockup.forms.anchor;fontColor=#999999;" parent="ujUrHDo3ct17JqZA6DmU-63" vertex="1">
          <mxGeometry x="103.125" y="57.7504" width="41.25" height="41.25028571428572" as="geometry" />
        </mxCell>
        <mxCell id="ujUrHDo3ct17JqZA6DmU-70" value="Th" style="strokeWidth=1;shadow=0;dashed=0;align=center;html=1;shape=mxgraph.mockup.forms.anchor;fontColor=#999999;" parent="ujUrHDo3ct17JqZA6DmU-63" vertex="1">
          <mxGeometry x="144.375" y="57.7504" width="41.25" height="41.25028571428572" as="geometry" />
        </mxCell>
        <mxCell id="ujUrHDo3ct17JqZA6DmU-71" value="Fr" style="strokeWidth=1;shadow=0;dashed=0;align=center;html=1;shape=mxgraph.mockup.forms.anchor;fontColor=#999999;" parent="ujUrHDo3ct17JqZA6DmU-63" vertex="1">
          <mxGeometry x="185.625" y="57.7504" width="41.25" height="41.25028571428572" as="geometry" />
        </mxCell>
        <mxCell id="ujUrHDo3ct17JqZA6DmU-72" value="Sa" style="strokeWidth=1;shadow=0;dashed=0;align=center;html=1;shape=mxgraph.mockup.forms.anchor;fontColor=#999999;" parent="ujUrHDo3ct17JqZA6DmU-63" vertex="1">
          <mxGeometry x="226.875" y="57.7504" width="41.25" height="41.25028571428572" as="geometry" />
        </mxCell>
        <mxCell id="ujUrHDo3ct17JqZA6DmU-73" value="Su" style="strokeWidth=1;shadow=0;dashed=0;align=center;html=1;shape=mxgraph.mockup.forms.anchor;fontColor=#999999;" parent="ujUrHDo3ct17JqZA6DmU-63" vertex="1">
          <mxGeometry x="268.125" y="57.7504" width="41.25" height="41.25028571428572" as="geometry" />
        </mxCell>
        <mxCell id="ujUrHDo3ct17JqZA6DmU-74" value="1" style="strokeWidth=1;shadow=0;dashed=0;align=center;html=1;shape=mxgraph.mockup.forms.rrect;rSize=0;strokeColor=#999999;fontColor=#999999;" parent="ujUrHDo3ct17JqZA6DmU-63" vertex="1">
          <mxGeometry x="20.625" y="99.00068571428571" width="41.25" height="41.25028571428572" as="geometry" />
        </mxCell>
        <mxCell id="ujUrHDo3ct17JqZA6DmU-75" value="2" style="strokeWidth=1;shadow=0;dashed=0;align=center;html=1;shape=mxgraph.mockup.forms.rrect;rSize=0;strokeColor=#999999;fontColor=#999999;" parent="ujUrHDo3ct17JqZA6DmU-63" vertex="1">
          <mxGeometry x="61.875" y="99.00068571428571" width="41.25" height="41.25028571428572" as="geometry" />
        </mxCell>
        <mxCell id="ujUrHDo3ct17JqZA6DmU-76" value="3" style="strokeWidth=1;shadow=0;dashed=0;align=center;html=1;shape=mxgraph.mockup.forms.rrect;rSize=0;strokeColor=#999999;fontColor=#999999;" parent="ujUrHDo3ct17JqZA6DmU-63" vertex="1">
          <mxGeometry x="103.125" y="99.00068571428571" width="41.25" height="41.25028571428572" as="geometry" />
        </mxCell>
        <mxCell id="ujUrHDo3ct17JqZA6DmU-77" value="4" style="strokeWidth=1;shadow=0;dashed=0;align=center;html=1;shape=mxgraph.mockup.forms.rrect;rSize=0;strokeColor=#999999;fontColor=#999999;" parent="ujUrHDo3ct17JqZA6DmU-63" vertex="1">
          <mxGeometry x="144.375" y="99.00068571428571" width="41.25" height="41.25028571428572" as="geometry" />
        </mxCell>
        <mxCell id="ujUrHDo3ct17JqZA6DmU-78" value="5" style="strokeWidth=1;shadow=0;dashed=0;align=center;html=1;shape=mxgraph.mockup.forms.rrect;rSize=0;strokeColor=#999999;fontColor=#999999;" parent="ujUrHDo3ct17JqZA6DmU-63" vertex="1">
          <mxGeometry x="185.625" y="99.00068571428571" width="41.25" height="41.25028571428572" as="geometry" />
        </mxCell>
        <mxCell id="ujUrHDo3ct17JqZA6DmU-79" value="6" style="strokeWidth=1;shadow=0;dashed=0;align=center;html=1;shape=mxgraph.mockup.forms.rrect;rSize=0;strokeColor=#999999;fontColor=#999999;" parent="ujUrHDo3ct17JqZA6DmU-63" vertex="1">
          <mxGeometry x="226.875" y="99.00068571428571" width="41.25" height="41.25028571428572" as="geometry" />
        </mxCell>
        <mxCell id="ujUrHDo3ct17JqZA6DmU-80" value="7" style="strokeWidth=1;shadow=0;dashed=0;align=center;html=1;shape=mxgraph.mockup.forms.rrect;rSize=0;strokeColor=#999999;fontColor=#999999;" parent="ujUrHDo3ct17JqZA6DmU-63" vertex="1">
          <mxGeometry x="268.125" y="99.00068571428571" width="41.25" height="41.25028571428572" as="geometry" />
        </mxCell>
        <mxCell id="ujUrHDo3ct17JqZA6DmU-81" value="8" style="strokeWidth=1;shadow=0;dashed=0;align=center;html=1;shape=mxgraph.mockup.forms.rrect;rSize=0;strokeColor=#999999;fontColor=#999999;" parent="ujUrHDo3ct17JqZA6DmU-63" vertex="1">
          <mxGeometry x="20.625" y="140.25097142857143" width="41.25" height="41.25028571428572" as="geometry" />
        </mxCell>
        <mxCell id="ujUrHDo3ct17JqZA6DmU-82" value="9" style="strokeWidth=1;shadow=0;dashed=0;align=center;html=1;shape=mxgraph.mockup.forms.rrect;rSize=0;strokeColor=#999999;fontColor=#999999;" parent="ujUrHDo3ct17JqZA6DmU-63" vertex="1">
          <mxGeometry x="61.875" y="140.25097142857143" width="41.25" height="41.25028571428572" as="geometry" />
        </mxCell>
        <mxCell id="ujUrHDo3ct17JqZA6DmU-83" value="10" style="strokeWidth=1;shadow=0;dashed=0;align=center;html=1;shape=mxgraph.mockup.forms.rrect;rSize=0;strokeColor=#999999;fontColor=#999999;" parent="ujUrHDo3ct17JqZA6DmU-63" vertex="1">
          <mxGeometry x="103.125" y="140.25097142857143" width="41.25" height="41.25028571428572" as="geometry" />
        </mxCell>
        <mxCell id="ujUrHDo3ct17JqZA6DmU-84" value="11" style="strokeWidth=1;shadow=0;dashed=0;align=center;html=1;shape=mxgraph.mockup.forms.rrect;rSize=0;strokeColor=#999999;fontColor=#999999;" parent="ujUrHDo3ct17JqZA6DmU-63" vertex="1">
          <mxGeometry x="144.375" y="140.25097142857143" width="41.25" height="41.25028571428572" as="geometry" />
        </mxCell>
        <mxCell id="ujUrHDo3ct17JqZA6DmU-85" value="12" style="strokeWidth=1;shadow=0;dashed=0;align=center;html=1;shape=mxgraph.mockup.forms.rrect;rSize=0;strokeColor=#999999;fontColor=#999999;" parent="ujUrHDo3ct17JqZA6DmU-63" vertex="1">
          <mxGeometry x="185.625" y="140.25097142857143" width="41.25" height="41.25028571428572" as="geometry" />
        </mxCell>
        <mxCell id="ujUrHDo3ct17JqZA6DmU-86" value="13" style="strokeWidth=1;shadow=0;dashed=0;align=center;html=1;shape=mxgraph.mockup.forms.rrect;rSize=0;strokeColor=#999999;fontColor=#999999;" parent="ujUrHDo3ct17JqZA6DmU-63" vertex="1">
          <mxGeometry x="226.875" y="140.25097142857143" width="41.25" height="41.25028571428572" as="geometry" />
        </mxCell>
        <mxCell id="ujUrHDo3ct17JqZA6DmU-87" value="14" style="strokeWidth=1;shadow=0;dashed=0;align=center;html=1;shape=mxgraph.mockup.forms.rrect;rSize=0;strokeColor=#999999;fontColor=#999999;" parent="ujUrHDo3ct17JqZA6DmU-63" vertex="1">
          <mxGeometry x="268.125" y="140.25097142857143" width="41.25" height="41.25028571428572" as="geometry" />
        </mxCell>
        <mxCell id="ujUrHDo3ct17JqZA6DmU-88" value="15" style="strokeWidth=1;shadow=0;dashed=0;align=center;html=1;shape=mxgraph.mockup.forms.rrect;rSize=0;strokeColor=#999999;fontColor=#999999;" parent="ujUrHDo3ct17JqZA6DmU-63" vertex="1">
          <mxGeometry x="20.625" y="181.50125714285716" width="41.25" height="41.25028571428572" as="geometry" />
        </mxCell>
        <mxCell id="ujUrHDo3ct17JqZA6DmU-89" value="16" style="strokeWidth=1;shadow=0;dashed=0;align=center;html=1;shape=mxgraph.mockup.forms.rrect;rSize=0;strokeColor=#999999;fontColor=#999999;" parent="ujUrHDo3ct17JqZA6DmU-63" vertex="1">
          <mxGeometry x="61.875" y="181.50125714285716" width="41.25" height="41.25028571428572" as="geometry" />
        </mxCell>
        <mxCell id="ujUrHDo3ct17JqZA6DmU-90" value="17" style="strokeWidth=1;shadow=0;dashed=0;align=center;html=1;shape=mxgraph.mockup.forms.rrect;rSize=0;strokeColor=#999999;fontColor=#999999;" parent="ujUrHDo3ct17JqZA6DmU-63" vertex="1">
          <mxGeometry x="103.125" y="181.50125714285716" width="41.25" height="41.25028571428572" as="geometry" />
        </mxCell>
        <mxCell id="ujUrHDo3ct17JqZA6DmU-91" value="18" style="strokeWidth=1;shadow=0;dashed=0;align=center;html=1;shape=mxgraph.mockup.forms.rrect;rSize=0;strokeColor=#999999;fontColor=#999999;" parent="ujUrHDo3ct17JqZA6DmU-63" vertex="1">
          <mxGeometry x="144.375" y="181.50125714285716" width="41.25" height="41.25028571428572" as="geometry" />
        </mxCell>
        <mxCell id="ujUrHDo3ct17JqZA6DmU-92" value="19" style="strokeWidth=1;shadow=0;dashed=0;align=center;html=1;shape=mxgraph.mockup.forms.rrect;rSize=0;strokeColor=#999999;fontColor=#999999;" parent="ujUrHDo3ct17JqZA6DmU-63" vertex="1">
          <mxGeometry x="185.625" y="181.50125714285716" width="41.25" height="41.25028571428572" as="geometry" />
        </mxCell>
        <mxCell id="ujUrHDo3ct17JqZA6DmU-93" value="20" style="strokeWidth=1;shadow=0;dashed=0;align=center;html=1;shape=mxgraph.mockup.forms.rrect;rSize=0;strokeColor=#999999;fontColor=#999999;" parent="ujUrHDo3ct17JqZA6DmU-63" vertex="1">
          <mxGeometry x="226.875" y="181.50125714285716" width="41.25" height="41.25028571428572" as="geometry" />
        </mxCell>
        <mxCell id="ujUrHDo3ct17JqZA6DmU-94" value="21" style="strokeWidth=1;shadow=0;dashed=0;align=center;html=1;shape=mxgraph.mockup.forms.rrect;rSize=0;strokeColor=#999999;fontColor=#999999;" parent="ujUrHDo3ct17JqZA6DmU-63" vertex="1">
          <mxGeometry x="268.125" y="181.50125714285716" width="41.25" height="41.25028571428572" as="geometry" />
        </mxCell>
        <mxCell id="ujUrHDo3ct17JqZA6DmU-95" value="22" style="strokeWidth=1;shadow=0;dashed=0;align=center;html=1;shape=mxgraph.mockup.forms.rrect;rSize=0;strokeColor=#999999;fontColor=#999999;" parent="ujUrHDo3ct17JqZA6DmU-63" vertex="1">
          <mxGeometry x="20.625" y="222.75154285714285" width="41.25" height="41.25028571428572" as="geometry" />
        </mxCell>
        <mxCell id="ujUrHDo3ct17JqZA6DmU-96" value="23" style="strokeWidth=1;shadow=0;dashed=0;align=center;html=1;shape=mxgraph.mockup.forms.rrect;rSize=0;strokeColor=#999999;fontColor=#999999;" parent="ujUrHDo3ct17JqZA6DmU-63" vertex="1">
          <mxGeometry x="61.875" y="222.75154285714285" width="41.25" height="41.25028571428572" as="geometry" />
        </mxCell>
        <mxCell id="ujUrHDo3ct17JqZA6DmU-97" value="25" style="strokeWidth=1;shadow=0;dashed=0;align=center;html=1;shape=mxgraph.mockup.forms.rrect;rSize=0;strokeColor=#999999;fontColor=#999999;" parent="ujUrHDo3ct17JqZA6DmU-63" vertex="1">
          <mxGeometry x="144.375" y="222.75154285714285" width="41.25" height="41.25028571428572" as="geometry" />
        </mxCell>
        <mxCell id="ujUrHDo3ct17JqZA6DmU-98" value="26" style="strokeWidth=1;shadow=0;dashed=0;align=center;html=1;shape=mxgraph.mockup.forms.rrect;rSize=0;strokeColor=#999999;fontColor=#999999;" parent="ujUrHDo3ct17JqZA6DmU-63" vertex="1">
          <mxGeometry x="185.625" y="222.75154285714285" width="41.25" height="41.25028571428572" as="geometry" />
        </mxCell>
        <mxCell id="ujUrHDo3ct17JqZA6DmU-99" value="27" style="strokeWidth=1;shadow=0;dashed=0;align=center;html=1;shape=mxgraph.mockup.forms.rrect;rSize=0;strokeColor=#999999;fontColor=#999999;" parent="ujUrHDo3ct17JqZA6DmU-63" vertex="1">
          <mxGeometry x="226.875" y="222.75154285714285" width="41.25" height="41.25028571428572" as="geometry" />
        </mxCell>
        <mxCell id="ujUrHDo3ct17JqZA6DmU-100" value="28" style="strokeWidth=1;shadow=0;dashed=0;align=center;html=1;shape=mxgraph.mockup.forms.rrect;rSize=0;strokeColor=#999999;fontColor=#999999;" parent="ujUrHDo3ct17JqZA6DmU-63" vertex="1">
          <mxGeometry x="268.125" y="222.75154285714285" width="41.25" height="41.25028571428572" as="geometry" />
        </mxCell>
        <mxCell id="ujUrHDo3ct17JqZA6DmU-101" value="29" style="strokeWidth=1;shadow=0;dashed=0;align=center;html=1;shape=mxgraph.mockup.forms.rrect;rSize=0;strokeColor=#999999;fontColor=#999999;" parent="ujUrHDo3ct17JqZA6DmU-63" vertex="1">
          <mxGeometry x="20.625" y="264.0018285714286" width="41.25" height="41.25028571428572" as="geometry" />
        </mxCell>
        <mxCell id="ujUrHDo3ct17JqZA6DmU-102" value="30" style="strokeWidth=1;shadow=0;dashed=0;align=center;html=1;shape=mxgraph.mockup.forms.rrect;rSize=0;strokeColor=#999999;fontColor=#999999;" parent="ujUrHDo3ct17JqZA6DmU-63" vertex="1">
          <mxGeometry x="61.875" y="264.0018285714286" width="41.25" height="41.25028571428572" as="geometry" />
        </mxCell>
        <mxCell id="ujUrHDo3ct17JqZA6DmU-103" value="31" style="strokeWidth=1;shadow=0;dashed=0;align=center;html=1;shape=mxgraph.mockup.forms.rrect;rSize=0;strokeColor=#999999;fontColor=#999999;" parent="ujUrHDo3ct17JqZA6DmU-63" vertex="1">
          <mxGeometry x="103.125" y="264.0018285714286" width="41.25" height="41.25028571428572" as="geometry" />
        </mxCell>
        <mxCell id="ujUrHDo3ct17JqZA6DmU-104" value="1" style="strokeWidth=1;shadow=0;dashed=0;align=center;html=1;shape=mxgraph.mockup.forms.rrect;rSize=0;strokeColor=#999999;fontColor=#999999;fillColor=#ddeeff;" parent="ujUrHDo3ct17JqZA6DmU-63" vertex="1">
          <mxGeometry x="144.375" y="264.0018285714286" width="41.25" height="41.25028571428572" as="geometry" />
        </mxCell>
        <mxCell id="ujUrHDo3ct17JqZA6DmU-105" value="2" style="strokeWidth=1;shadow=0;dashed=0;align=center;html=1;shape=mxgraph.mockup.forms.rrect;rSize=0;strokeColor=#999999;fontColor=#999999;fillColor=#ddeeff;" parent="ujUrHDo3ct17JqZA6DmU-63" vertex="1">
          <mxGeometry x="185.625" y="264.0018285714286" width="41.25" height="41.25028571428572" as="geometry" />
        </mxCell>
        <mxCell id="ujUrHDo3ct17JqZA6DmU-106" value="3" style="strokeWidth=1;shadow=0;dashed=0;align=center;html=1;shape=mxgraph.mockup.forms.rrect;rSize=0;strokeColor=#999999;fontColor=#999999;fillColor=#ddeeff;" parent="ujUrHDo3ct17JqZA6DmU-63" vertex="1">
          <mxGeometry x="226.875" y="264.0018285714286" width="41.25" height="41.25028571428572" as="geometry" />
        </mxCell>
        <mxCell id="ujUrHDo3ct17JqZA6DmU-107" value="4" style="strokeWidth=1;shadow=0;dashed=0;align=center;html=1;shape=mxgraph.mockup.forms.rrect;rSize=0;strokeColor=#999999;fontColor=#999999;fillColor=#ddeeff;" parent="ujUrHDo3ct17JqZA6DmU-63" vertex="1">
          <mxGeometry x="268.125" y="264.0018285714286" width="41.25" height="41.25028571428572" as="geometry" />
        </mxCell>
        <mxCell id="ujUrHDo3ct17JqZA6DmU-108" value="5" style="strokeWidth=1;shadow=0;dashed=0;align=center;html=1;shape=mxgraph.mockup.forms.rrect;rSize=0;strokeColor=#999999;fontColor=#999999;fillColor=#ddeeff;" parent="ujUrHDo3ct17JqZA6DmU-63" vertex="1">
          <mxGeometry x="20.625" y="305.2521142857143" width="41.25" height="41.25028571428572" as="geometry" />
        </mxCell>
        <mxCell id="ujUrHDo3ct17JqZA6DmU-109" value="6" style="strokeWidth=1;shadow=0;dashed=0;align=center;html=1;shape=mxgraph.mockup.forms.rrect;rSize=0;strokeColor=#999999;fontColor=#999999;fillColor=#ddeeff;" parent="ujUrHDo3ct17JqZA6DmU-63" vertex="1">
          <mxGeometry x="61.875" y="305.2521142857143" width="41.25" height="41.25028571428572" as="geometry" />
        </mxCell>
        <mxCell id="ujUrHDo3ct17JqZA6DmU-110" value="7" style="strokeWidth=1;shadow=0;dashed=0;align=center;html=1;shape=mxgraph.mockup.forms.rrect;rSize=0;strokeColor=#999999;fontColor=#999999;fillColor=#ddeeff;" parent="ujUrHDo3ct17JqZA6DmU-63" vertex="1">
          <mxGeometry x="103.125" y="305.2521142857143" width="41.25" height="41.25028571428572" as="geometry" />
        </mxCell>
        <mxCell id="ujUrHDo3ct17JqZA6DmU-111" value="8" style="strokeWidth=1;shadow=0;dashed=0;align=center;html=1;shape=mxgraph.mockup.forms.rrect;rSize=0;strokeColor=#999999;fontColor=#999999;fillColor=#ddeeff;" parent="ujUrHDo3ct17JqZA6DmU-63" vertex="1">
          <mxGeometry x="144.375" y="305.2521142857143" width="41.25" height="41.25028571428572" as="geometry" />
        </mxCell>
        <mxCell id="ujUrHDo3ct17JqZA6DmU-112" value="9" style="strokeWidth=1;shadow=0;dashed=0;align=center;html=1;shape=mxgraph.mockup.forms.rrect;rSize=0;strokeColor=#999999;fontColor=#999999;fillColor=#ddeeff;" parent="ujUrHDo3ct17JqZA6DmU-63" vertex="1">
          <mxGeometry x="185.625" y="305.2521142857143" width="41.25" height="41.25028571428572" as="geometry" />
        </mxCell>
        <mxCell id="ujUrHDo3ct17JqZA6DmU-113" value="10" style="strokeWidth=1;shadow=0;dashed=0;align=center;html=1;shape=mxgraph.mockup.forms.rrect;rSize=0;strokeColor=#999999;fontColor=#999999;fillColor=#ddeeff;" parent="ujUrHDo3ct17JqZA6DmU-63" vertex="1">
          <mxGeometry x="226.875" y="305.2521142857143" width="41.25" height="41.25028571428572" as="geometry" />
        </mxCell>
        <mxCell id="ujUrHDo3ct17JqZA6DmU-114" value="11" style="strokeWidth=1;shadow=0;dashed=0;align=center;html=1;shape=mxgraph.mockup.forms.rrect;rSize=0;strokeColor=#999999;fontColor=#999999;fillColor=#ddeeff;" parent="ujUrHDo3ct17JqZA6DmU-63" vertex="1">
          <mxGeometry x="268.125" y="305.2521142857143" width="41.25" height="41.25028571428572" as="geometry" />
        </mxCell>
        <mxCell id="ujUrHDo3ct17JqZA6DmU-115" value="24" style="strokeWidth=1;shadow=0;dashed=0;align=center;html=1;shape=mxgraph.mockup.forms.rrect;rSize=0;strokeColor=#ff0000;fontColor=#ffffff;strokeWidth=2;fillColor=#008cff;" parent="ujUrHDo3ct17JqZA6DmU-63" vertex="1">
          <mxGeometry x="103.125" y="222.75154285714285" width="41.25" height="41.25028571428572" as="geometry" />
        </mxCell>
        <mxCell id="ujUrHDo3ct17JqZA6DmU-118" value="" style="strokeWidth=1;shadow=0;dashed=0;align=center;html=1;shape=mxgraph.mockup.forms.rrect;rSize=0;strokeColor=#999999;fillColor=#ffffff;fontSize=29;" parent="1" vertex="1">
          <mxGeometry x="-1160" y="370" width="150" height="200" as="geometry" />
        </mxCell>
        <mxCell id="ujUrHDo3ct17JqZA6DmU-119" value="Loại phòng" style="strokeWidth=1;shadow=0;dashed=0;align=center;html=1;shape=mxgraph.mockup.forms.rrect;rSize=0;strokeColor=#999999;fontColor=#008cff;fontSize=17;fillColor=#ffffff;resizeWidth=1;" parent="ujUrHDo3ct17JqZA6DmU-118" vertex="1">
          <mxGeometry width="150" height="30" relative="1" as="geometry" />
        </mxCell>
        <mxCell id="ujUrHDo3ct17JqZA6DmU-120" value="Phòng thường" style="strokeWidth=1;shadow=0;dashed=0;align=center;html=1;shape=mxgraph.mockup.forms.anchor;fontSize=17;fontColor=#666666;align=left;spacingLeft=5;resizeWidth=1;" parent="ujUrHDo3ct17JqZA6DmU-118" vertex="1">
          <mxGeometry width="150" height="20" relative="1" as="geometry">
            <mxPoint y="30" as="offset" />
          </mxGeometry>
        </mxCell>
        <mxCell id="ujUrHDo3ct17JqZA6DmU-121" value="Phường VIP" style="strokeWidth=1;shadow=0;dashed=0;align=center;html=1;shape=mxgraph.mockup.forms.anchor;fontSize=17;fontColor=#666666;align=left;spacingLeft=5;resizeWidth=1;" parent="ujUrHDo3ct17JqZA6DmU-118" vertex="1">
          <mxGeometry width="150" height="20" relative="1" as="geometry">
            <mxPoint y="50" as="offset" />
          </mxGeometry>
        </mxCell>
        <mxCell id="ujUrHDo3ct17JqZA6DmU-141" value="Phòng tổng thống" style="strokeWidth=1;shadow=0;dashed=0;align=center;html=1;shape=mxgraph.mockup.forms.anchor;fontSize=17;fontColor=#666666;align=left;spacingLeft=5;resizeWidth=1;" parent="ujUrHDo3ct17JqZA6DmU-118" vertex="1">
          <mxGeometry width="150" height="20" relative="1" as="geometry">
            <mxPoint y="70" as="offset" />
          </mxGeometry>
        </mxCell>
        <mxCell id="ujUrHDo3ct17JqZA6DmU-132" value="&lt;table cellpadding=&quot;0&quot; cellspacing=&quot;0&quot; style=&quot;width:100%;height:100%;&quot;&gt;&lt;tr&gt;&lt;td style=&quot;width:85%&quot;&gt;100&lt;/td&gt;&lt;td style=&quot;width:15%&quot;&gt;&lt;/td&gt;&lt;/tr&gt;&lt;/table&gt;" style="strokeWidth=1;shadow=0;dashed=0;align=center;html=1;shape=mxgraph.mockup.forms.spinner;strokeColor=#999999;spinLayout=right;spinStyle=normal;adjStyle=triangle;fillColor=#aaddff;fontSize=17;fontColor=#666666;mainText=;html=1;overflow=fill;" parent="1" vertex="1">
          <mxGeometry x="-640" y="340" width="150" height="36" as="geometry" />
        </mxCell>
        <mxCell id="iy7l8Z3j97CfQDaK9TCk-1" value="QUẢN LÝ DỊCH VỤ KHÁCH SẠN &amp;lt;TÊN KHÁCH SẠN&amp;gt;" style="text;html=1;strokeColor=none;fillColor=none;align=left;verticalAlign=middle;whiteSpace=wrap;rounded=0;fontSize=18;" parent="1" vertex="1">
          <mxGeometry x="240" y="80" width="510" height="90" as="geometry" />
        </mxCell>
        <mxCell id="iy7l8Z3j97CfQDaK9TCk-2" value="" style="rounded=0;whiteSpace=wrap;html=1;" parent="1" vertex="1">
          <mxGeometry x="60" y="60" width="140" height="410" as="geometry" />
        </mxCell>
        <mxCell id="iy7l8Z3j97CfQDaK9TCk-6" value="" style="rounded=0;whiteSpace=wrap;html=1;fontSize=18;align=left;" parent="1" vertex="1">
          <mxGeometry x="-640" y="280" width="150" height="30" as="geometry" />
        </mxCell>
        <mxCell id="iy7l8Z3j97CfQDaK9TCk-8" value="" style="rounded=0;whiteSpace=wrap;html=1;fontSize=18;align=left;" parent="1" vertex="1">
          <mxGeometry x="-800" y="560" width="410" height="360" as="geometry" />
        </mxCell>
        <mxCell id="iy7l8Z3j97CfQDaK9TCk-9" value="&amp;lt;Nhóm yêu cầu 1&amp;gt;&amp;nbsp;" style="text;html=1;strokeColor=none;fillColor=none;align=center;verticalAlign=middle;whiteSpace=wrap;rounded=0;fontSize=18;" parent="1" vertex="1">
          <mxGeometry x="-770" y="587" width="190" height="20" as="geometry" />
        </mxCell>
        <mxCell id="iy7l8Z3j97CfQDaK9TCk-10" value="&amp;lt;Nhóm yêu cầu 2&amp;gt;&amp;nbsp;" style="text;html=1;strokeColor=none;fillColor=none;align=center;verticalAlign=middle;whiteSpace=wrap;rounded=0;fontSize=18;" parent="1" vertex="1">
          <mxGeometry x="-770" y="670" width="190" height="20" as="geometry" />
        </mxCell>
        <mxCell id="iy7l8Z3j97CfQDaK9TCk-11" value="&amp;lt;Nhóm yêu cầu n&amp;gt;&amp;nbsp;" style="text;html=1;strokeColor=none;fillColor=none;align=center;verticalAlign=middle;whiteSpace=wrap;rounded=0;fontSize=18;" parent="1" vertex="1">
          <mxGeometry x="-770" y="850" width="190" height="20" as="geometry" />
        </mxCell>
        <mxCell id="iy7l8Z3j97CfQDaK9TCk-13" value="&amp;lt;Tên nhân viên&amp;gt;" style="text;html=1;strokeColor=none;fillColor=none;align=center;verticalAlign=middle;whiteSpace=wrap;rounded=0;fontSize=16;" parent="1" vertex="1">
          <mxGeometry x="60" y="400" width="140" height="20" as="geometry" />
        </mxCell>
        <mxCell id="iy7l8Z3j97CfQDaK9TCk-14" value="Logout" style="text;html=1;strokeColor=none;fillColor=none;align=center;verticalAlign=middle;whiteSpace=wrap;rounded=0;fontSize=16;" parent="1" vertex="1">
          <mxGeometry x="70" y="430" width="70" height="20" as="geometry" />
        </mxCell>
        <mxCell id="iy7l8Z3j97CfQDaK9TCk-15" value="Hủy" style="strokeWidth=1;shadow=0;dashed=0;align=center;html=1;shape=mxgraph.mockup.buttons.button;strokeColor=#666666;fontColor=#ffffff;mainText=;buttonStyle=round;fontSize=17;fontStyle=1;fillColor=#008cff;whiteSpace=wrap;" parent="1" vertex="1">
          <mxGeometry x="-230" y="380" width="140" height="40" as="geometry" />
        </mxCell>
        <mxCell id="iy7l8Z3j97CfQDaK9TCk-16" value="Quản lý dịch vụ" style="strokeWidth=1;shadow=0;dashed=0;align=center;html=1;shape=mxgraph.mockup.containers.window;align=left;verticalAlign=top;spacingLeft=8;strokeColor2=#008cff;strokeColor3=#c4c4c4;fontColor=#666666;mainText=;fontSize=17;labelBackgroundColor=none;" parent="1" vertex="1">
          <mxGeometry x="900" y="30" width="750" height="440" as="geometry" />
        </mxCell>
        <mxCell id="iy7l8Z3j97CfQDaK9TCk-17" value="Quản lý dịch vụ" style="strokeWidth=1;shadow=0;dashed=0;align=center;html=1;shape=mxgraph.mockup.containers.window;align=left;verticalAlign=top;spacingLeft=8;strokeColor2=#008cff;strokeColor3=#c4c4c4;fontColor=#666666;mainText=;fontSize=17;labelBackgroundColor=none;fontStyle=1" parent="1" vertex="1">
          <mxGeometry x="50" y="1140" width="750" height="440" as="geometry" />
        </mxCell>
        <mxCell id="iy7l8Z3j97CfQDaK9TCk-18" value="Quản lý dịch vụ" style="strokeWidth=1;shadow=0;dashed=0;align=center;html=1;shape=mxgraph.mockup.containers.window;align=left;verticalAlign=top;spacingLeft=8;strokeColor2=#008cff;strokeColor3=#c4c4c4;fontColor=#666666;mainText=;fontSize=17;labelBackgroundColor=none;" parent="1" vertex="1">
          <mxGeometry x="60" y="-1050" width="750" height="440" as="geometry" />
        </mxCell>
        <mxCell id="iy7l8Z3j97CfQDaK9TCk-19" value="QUẢN LÝ DỊCH VỤ KHÁCH SẠN &amp;lt;TÊN KHÁCH SẠN&amp;gt;" style="text;html=1;strokeColor=none;fillColor=none;align=left;verticalAlign=middle;whiteSpace=wrap;rounded=0;fontSize=18;" parent="1" vertex="1">
          <mxGeometry x="210" y="-1000" width="450" height="90" as="geometry" />
        </mxCell>
        <mxCell id="WSn2ks0rtRTlL89xFY6x-1" value="Tên đăng nhập" style="text;html=1;strokeColor=none;fillColor=none;align=center;verticalAlign=middle;whiteSpace=wrap;rounded=0;" vertex="1" parent="1">
          <mxGeometry x="340" y="-900" width="190" height="30" as="geometry" />
        </mxCell>
        <mxCell id="WSn2ks0rtRTlL89xFY6x-3" value="Mật khẩu" style="text;html=1;strokeColor=none;fillColor=none;align=center;verticalAlign=middle;whiteSpace=wrap;rounded=0;" vertex="1" parent="1">
          <mxGeometry x="340" y="-810" width="190" height="30" as="geometry" />
        </mxCell>
        <mxCell id="WSn2ks0rtRTlL89xFY6x-4" value="********" style="strokeWidth=1;shadow=0;dashed=0;align=center;html=1;shape=mxgraph.mockup.forms.pwField;strokeColor=#999999;mainText=;align=left;fontColor=#666666;fontSize=17;spacingLeft=3;" vertex="1" parent="1">
          <mxGeometry x="360" y="-770" width="150" height="30" as="geometry" />
        </mxCell>
        <mxCell id="WSn2ks0rtRTlL89xFY6x-5" value="" style="strokeWidth=1;shadow=0;dashed=0;align=center;html=1;shape=mxgraph.mockup.forms.pwField;strokeColor=#999999;mainText=;align=left;fontColor=#666666;fontSize=17;spacingLeft=3;" vertex="1" parent="1">
          <mxGeometry x="360" y="-850" width="150" height="30" as="geometry" />
        </mxCell>
        <mxCell id="WSn2ks0rtRTlL89xFY6x-6" value="Đặt phòng" style="strokeWidth=1;shadow=0;dashed=0;align=center;html=1;shape=mxgraph.mockup.buttons.button;strokeColor=#666666;fontColor=#ffffff;mainText=;buttonStyle=round;fontSize=17;fontStyle=1;fillColor=#008cff;whiteSpace=wrap;" vertex="1" parent="1">
          <mxGeometry x="-390" y="380" width="140" height="40" as="geometry" />
        </mxCell>
        <mxCell id="WSn2ks0rtRTlL89xFY6x-7" value="Số phòng" style="text;html=1;strokeColor=none;fillColor=none;align=center;verticalAlign=middle;whiteSpace=wrap;rounded=0;fontStyle=1" vertex="1" parent="1">
          <mxGeometry x="940" y="189" width="120" height="30" as="geometry" />
        </mxCell>
        <mxCell id="WSn2ks0rtRTlL89xFY6x-8" value="" style="strokeWidth=1;shadow=0;dashed=0;align=center;html=1;shape=mxgraph.mockup.text.textBox;fontColor=#666666;align=left;fontSize=17;spacingLeft=4;spacingTop=-3;strokeColor=#666666;mainText=;fillColor=#FFFFFF;" vertex="1" parent="1">
          <mxGeometry x="1080" y="190" width="150" height="30" as="geometry" />
        </mxCell>
        <mxCell id="WSn2ks0rtRTlL89xFY6x-9" value="Thông tin dịch vụ" style="text;html=1;strokeColor=none;fillColor=none;align=center;verticalAlign=middle;whiteSpace=wrap;rounded=0;fontSize=29;fontStyle=1" vertex="1" parent="1">
          <mxGeometry x="1120" y="89" width="310" height="70" as="geometry" />
        </mxCell>
        <mxCell id="WSn2ks0rtRTlL89xFY6x-10" value="Loại dịch vụ" style="text;html=1;strokeColor=none;fillColor=none;align=center;verticalAlign=middle;whiteSpace=wrap;rounded=0;fontStyle=1" vertex="1" parent="1">
          <mxGeometry x="940" y="260" width="120" height="30" as="geometry" />
        </mxCell>
        <mxCell id="WSn2ks0rtRTlL89xFY6x-11" value="" style="strokeWidth=1;shadow=0;dashed=0;align=center;html=1;shape=mxgraph.mockup.text.textBox;fontColor=#666666;align=left;fontSize=17;spacingLeft=4;spacingTop=-3;strokeColor=#666666;mainText=;fillColor=#FFFFFF;" vertex="1" parent="1">
          <mxGeometry x="1080" y="261" width="150" height="30" as="geometry" />
        </mxCell>
        <mxCell id="WSn2ks0rtRTlL89xFY6x-12" value="Tên dịch vụ" style="text;html=1;strokeColor=none;fillColor=none;align=center;verticalAlign=middle;whiteSpace=wrap;rounded=0;fontStyle=1" vertex="1" parent="1">
          <mxGeometry x="940" y="326" width="120" height="30" as="geometry" />
        </mxCell>
        <mxCell id="WSn2ks0rtRTlL89xFY6x-13" value="" style="strokeWidth=1;shadow=0;dashed=0;align=center;html=1;shape=mxgraph.mockup.text.textBox;fontColor=#666666;align=left;fontSize=17;spacingLeft=4;spacingTop=-3;strokeColor=#666666;mainText=;fillColor=#FFFFFF;" vertex="1" parent="1">
          <mxGeometry x="1080" y="327" width="150" height="30" as="geometry" />
        </mxCell>
        <mxCell id="WSn2ks0rtRTlL89xFY6x-16" value="Trả phòng" style="text;html=1;strokeColor=none;fillColor=none;align=center;verticalAlign=middle;whiteSpace=wrap;rounded=0;fontSize=29;fontStyle=1" vertex="1" parent="1">
          <mxGeometry x="270" y="1190" width="330" height="60" as="geometry" />
        </mxCell>
        <mxCell id="WSn2ks0rtRTlL89xFY6x-17" value="Số phòng" style="text;html=1;strokeColor=none;fillColor=none;align=center;verticalAlign=middle;whiteSpace=wrap;rounded=0;fontStyle=1" vertex="1" parent="1">
          <mxGeometry x="80" y="1270" width="120" height="30" as="geometry" />
        </mxCell>
        <mxCell id="WSn2ks0rtRTlL89xFY6x-18" value="&lt;table cellpadding=&quot;0&quot; cellspacing=&quot;0&quot; style=&quot;width:100%;height:100%;&quot;&gt;&lt;tr&gt;&lt;td style=&quot;width:85%&quot;&gt;100&lt;/td&gt;&lt;td style=&quot;width:15%&quot;&gt;&lt;/td&gt;&lt;/tr&gt;&lt;/table&gt;" style="strokeWidth=1;shadow=0;dashed=0;align=center;html=1;shape=mxgraph.mockup.forms.spinner;strokeColor=#999999;spinLayout=right;spinStyle=normal;adjStyle=triangle;fillColor=#aaddff;fontSize=17;fontColor=#666666;mainText=;html=1;overflow=fill;" vertex="1" parent="1">
          <mxGeometry x="210" y="1270" width="150" height="36" as="geometry" />
        </mxCell>
      </root>
    </mxGraphModel>
  </diagram>
</mxfile>
